<?xml version="1.0" encoding="UTF-8"?>
<svg id="Camada_2" data-name="Camada 2" xmlns="http://www.w3.org/2000/svg" viewBox="0 0 759.44 290.57">
  <defs>
    <style>
      .cls-1 {
        fill: #a71a17;
      }

      .cls-2 {
        fill: #1e1e1c;
      }
    </style>
  </defs>
  <g id="Camada_1-2" data-name="Camada 1">
    <g>
      <path class="cls-1" d="M574.88,169.77c28.71,14.22,55.1,44.28,66.24,58.07-1.1-13.06-6.66-31.31-23.68-49.3-20.17-21.31-48.93-41.68-82.72-58.91C471.29,87.26,457.87,0,457.87,0c33.78,49.07,101.74,35.11,160.66,76.15,57.77,40.23,65.99,107.52,66.29,110.16-.05-.94.25-7.37,17.76-24.88,19.08-19.08,41.2-3.43,45.18,4.58,3.97,8,11.69,12.96,11.69,12.96,0,0-36.23-3.03-28.63,23.86,9.08,32.09-12.9,60.25-23.19,68.42-69.13,54.85-145.68-28.09-145.68-28.09,53.74,41.53,72.97,21.32,78.36-.23.34-1.33.63-3.02.81-4.95-34.67,16.67-61.57,4.27-83.76-28.45-23.37-34.48-61.87-44.94-61.87-44.94,0,0,41.45-13.6,79.4,5.19"/>
      <g>
        <path class="cls-1" d="M1.13,208.35c0-23.11,9.08-31.82,32.74-31.82,7.61,0,13.66.92,20.82,3.39l-.73,8.07c-7.34-2.48-12.75-3.48-20.08-3.48-18.07,0-24.03,6.05-24.03,23.84s5.96,23.84,24.03,23.84c7.34,0,12.84-1.01,20.08-3.48l.73,8.07c-7.25,2.48-13.21,3.39-20.82,3.39-23.57,0-32.74-8.71-32.74-31.82Z"/>
        <path class="cls-1" d="M85.86,177.63h10.18l27.79,61.44h-9.35l-5.87-13.21h-35.58l-5.87,13.21h-9.08l27.79-61.44ZM105.12,218.07l-14.31-32.19-14.31,32.19h28.61Z"/>
        <path class="cls-1" d="M141.53,185.61h-24.3v-7.98h57.22v7.98h-24.3v53.46h-8.62v-53.46Z"/>
        <path class="cls-1" d="M177.57,208.35c0-23.57,8.53-31.82,32.74-31.82s32.74,8.25,32.74,31.82-8.53,31.82-32.74,31.82-32.74-8.25-32.74-31.82ZM234.33,208.35c0-18.43-5.5-24.03-24.03-24.03s-24.03,5.59-24.03,24.03,5.5,24.03,24.03,24.03,24.03-5.59,24.03-24.03ZM214.53,157.37h10.09l-13.48,14.58h-8.34l11.74-14.58Z"/>
        <path class="cls-1" d="M255.34,177.63h8.62v53.46h41.73v7.98h-50.35v-61.44Z"/>
        <path class="cls-1" d="M314.03,177.63h8.62v61.44h-8.62v-61.44Z"/>
        <path class="cls-1" d="M334.94,208.35c0-23.11,9.08-31.82,32.74-31.82,7.61,0,13.66.92,20.82,3.39l-.73,8.07c-7.34-2.48-12.75-3.48-20.08-3.48-18.07,0-24.03,6.05-24.03,23.84s5.96,23.84,24.03,23.84c7.34,0,12.84-1.01,20.08-3.48l.73,8.07c-7.25,2.48-13.21,3.39-20.82,3.39-23.57,0-32.74-8.71-32.74-31.82Z"/>
        <path class="cls-1" d="M419.67,177.63h10.18l27.79,61.44h-9.35l-5.87-13.21h-35.58l-5.87,13.21h-9.08l27.79-61.44ZM438.93,218.07l-14.31-32.19-14.31,32.19h28.61Z"/>
      </g>
      <g>
        <path class="cls-2" d="M0,134.06v-23.29h5.53v23.53c0,9.18,2.53,11.47,12.82,11.47s12.82-2.29,12.82-11.47v-23.53h5.35v23.29c0,13.12-4,16.82-18.29,16.82S0,147.17,0,134.06Z"/>
        <path class="cls-2" d="M45.59,110.76h7.24l24.71,31.18v-31.18h5.35v39.41h-5.47l-26.47-33.41v33.41h-5.35v-39.41Z"/>
        <path class="cls-2" d="M92.89,110.76h5.53v39.41h-5.53v-39.41Z"/>
        <path class="cls-2" d="M103.3,110.76h6l13.88,32.76,13.88-32.76h5.82l-16.76,39.41h-6.06l-16.76-39.41Z"/>
        <path class="cls-2" d="M147.78,110.76h34.12v5h-28.59v11.88h24.59v5h-24.59v12.53h29.06v5h-34.59v-39.41Z"/>
        <path class="cls-2" d="M189.9,110.76h23.12c9.88,0,13.59,3.35,13.59,12.06,0,7.88-3.12,11.35-11.18,11.88l12.71,15.47h-7.18l-12.65-15.41h-12.88v15.41h-5.53v-39.41ZM212.37,129.76c6.47,0,8.65-1.76,8.65-6.88s-2.29-7.12-8.65-7.12h-16.94v14h16.94Z"/>
        <path class="cls-2" d="M232.25,148.47l.47-5.29c4.88,1.82,10.35,2.71,16.82,2.71,9.41,0,12.29-1.82,12.29-6.82,0-3.94-1.82-5.23-9.41-5.88l-6-.53c-10.41-.94-13.65-3.53-13.65-10.71,0-8.65,4.76-11.88,17.65-11.88,5.82,0,10.59.65,14.94,2.06l-.47,5.23c-4.59-1.53-9.23-2.29-15.18-2.29-8.76,0-11.41,1.65-11.41,6.41,0,3.71,1.59,4.94,9.47,5.65l6,.53c10.35.94,13.59,3.71,13.59,11.18,0,8.94-4.65,12.06-18.18,12.06-6.47,0-12-.71-16.94-2.41Z"/>
        <path class="cls-2" d="M274.2,110.76h5.53v39.41h-5.53v-39.41Z"/>
        <path class="cls-2" d="M289.73,110.76h17.71c15.47,0,20.65,4.94,20.65,19.71s-5.18,19.71-20.65,19.71h-17.71v-39.41ZM307.02,145.17c12.12,0,15.47-3.24,15.47-14.71s-3.35-14.71-15.47-14.71h-11.76v29.41h11.76Z"/>
        <path class="cls-2" d="M347.74,110.76h6.53l17.82,39.41h-6l-3.76-8.47h-22.82l-3.76,8.47h-5.82l17.82-39.41ZM360.09,136.7l-9.18-20.65-9.18,20.65h18.35Z"/>
        <path class="cls-2" d="M376.97,110.76h17.71c15.47,0,20.65,4.94,20.65,19.71s-5.18,19.71-20.65,19.71h-17.71v-39.41ZM394.27,145.17c12.12,0,15.47-3.24,15.47-14.71s-3.35-14.71-15.47-14.71h-11.76v29.41h11.76Z"/>
        <path class="cls-2" d="M423.21,110.76h34.12v5h-28.59v11.88h24.59v5h-24.59v12.53h29.06v5h-34.59v-39.41Z"/>
      </g>
      <g>
        <path class="cls-2" d="M.12,257.08h14.78c12.91,0,17.23,4.12,17.23,16.45s-4.32,16.45-17.23,16.45H.12v-32.9ZM14.55,285.81c10.12,0,12.91-2.7,12.91-12.28s-2.8-12.28-12.91-12.28H4.73v24.55h9.82Z"/>
        <path class="cls-2" d="M38.71,257.08h28.48v4.17h-23.86v9.92h20.53v4.17h-20.53v10.46h24.26v4.17h-28.87v-32.9Z"/>
        <path class="cls-2" d="M84.47,257.08h19.15c8.35,0,11.54,2.85,11.54,10.36s-3.19,10.21-11.54,10.21h-14.54v12.32h-4.62v-32.9ZM103.03,273.48c5.55,0,7.46-1.47,7.46-6.09s-1.92-6.14-7.46-6.14h-13.95v12.23h13.95Z"/>
        <path class="cls-2" d="M120.6,257.08h28.48v4.17h-23.86v9.92h20.53v4.17h-20.53v10.46h24.26v4.17h-28.87v-32.9Z"/>
        <path class="cls-2" d="M155.76,257.08h19.3c8.25,0,11.34,2.8,11.34,10.07,0,6.58-2.6,9.48-9.33,9.92l10.61,12.91h-5.99l-10.56-12.86h-10.75v12.86h-4.62v-32.9ZM174.51,272.94c5.4,0,7.22-1.47,7.22-5.75s-1.92-5.94-7.22-5.94h-14.14v11.69h14.14Z"/>
        <path class="cls-2" d="M193.02,257.08h6.04l20.62,26.02v-26.02h4.47v32.9h-4.57l-22.1-27.89v27.89h-4.47v-32.9Z"/>
        <path class="cls-2" d="M243.1,257.08h5.45l14.88,32.9h-5.01l-3.14-7.07h-19.05l-3.14,7.07h-4.86l14.88-32.9ZM253.42,278.74l-7.66-17.23-7.66,17.23h15.32Z"/>
        <path class="cls-2" d="M267.5,257.08h6.87l12.96,26.37,12.91-26.37h6.97v32.9h-4.62v-27.79l-13.6,27.79h-3.54l-13.5-27.6v27.6h-4.47v-32.9Z"/>
        <path class="cls-2" d="M315.57,257.08h18.86c7.91,0,11,2.31,11,8.35,0,3.83-1.23,6.09-4.22,7.17v.1c3.88,1.03,5.4,3.54,5.4,8.15,0,6.58-3.14,9.13-11.1,9.13h-19.94v-32.9ZM333.64,271.18c5.4,0,7.17-1.18,7.17-4.96s-1.72-4.96-7.02-4.96h-13.6v9.92h13.45ZM334.87,285.81c5.21,0,7.07-1.33,7.07-5.3s-1.82-5.2-7.27-5.2h-14.49v10.51h14.68Z"/>
        <path class="cls-2" d="M351.9,276.53v-19.44h4.62v19.64c0,7.66,2.11,9.58,10.7,9.58s10.7-1.92,10.7-9.58v-19.64h4.47v19.44c0,10.95-3.34,14.04-15.27,14.04s-15.22-3.09-15.22-14.04Z"/>
        <path class="cls-2" d="M388.19,273.53c0-12.37,4.86-17.04,17.53-17.04,4.08,0,7.32.49,11.15,1.82l-.39,4.32c-3.93-1.33-6.83-1.87-10.75-1.87-9.67,0-12.86,3.24-12.86,12.77s3.19,12.77,12.86,12.77c3.93,0,6.88-.54,10.75-1.87l.39,4.32c-3.88,1.33-7.07,1.82-11.15,1.82-12.62,0-17.53-4.67-17.53-17.04Z"/>
        <path class="cls-2" d="M421.67,273.53c0-12.62,4.57-17.04,17.53-17.04s17.53,4.42,17.53,17.04-4.57,17.04-17.53,17.04-17.53-4.42-17.53-17.04ZM452.07,273.53c0-9.87-2.95-12.87-12.87-12.87s-12.87,3-12.87,12.87,2.95,12.86,12.87,12.86,12.87-3,12.87-12.86Z"/>
      </g>
    </g>
  </g>
</svg>